<svg xmlns="http://www.w3.org/2000/svg" height="40" viewBox="0 -960 960 960" width="40" fill="rgb(8, 240, 33)"><path d="m458.667-177.298 178.405-367.608H505.333v-240.463l-178.405 367.13h131.739v240.941ZM480.08-73.304q-85.848 0-160.121-31.372-74.272-31.371-129.092-86.191-54.82-54.82-86.191-129.092-31.372-74.273-31.372-160.121 0-85.181 31.334-159.384 31.334-74.202 86.191-129.092 54.858-54.89 129.13-86.594 74.273-31.705 160.121-31.705 85.181 0 159.392 31.684 74.212 31.684 129.108 86.571t86.586 129.086Q886.855-565.315 886.855-480q0 85.768-31.705 160.041-31.704 74.272-86.594 129.13-54.89 54.857-129.092 86.191-74.203 31.334-159.384 31.334Z"/></svg>