<svg xmlns="http://www.w3.org/2000/svg" height="40" viewBox="0 -960 960 960" width="40" fill="rgb(214, 30, 5)"><path d="M160-400q0-105 50-187t110-138q60-56 110-85.5l50-29.5v132q0 37 25 58.5t56 21.5q17 0 32.5-7t28.5-23l18-22q72 42 116 116.5T800-400q0 92.667-47 167.834Q706-157 629.333-117q21-25.333 32.5-56.167 11.5-30.833 11.5-64.833 0-38.667-14.333-72.833-14.333-34.167-41.667-61.5L480-506.666 343.667-372.333Q315.333-344.667 301-310.667q-14.333 34-14.333 72.667 0 34 11.5 64.833 11.5 30.834 32.5 56.167Q254-157 207-232.166 160-307.333 160-400Zm320-13.334 89.667 87.667q17.666 17.667 27.333 40 9.667 22.334 9.667 47.667 0 51.667-37 88.167T480-113.333q-52.667 0-89.667-36.5t-37-88.167q0-25 9.333-47.5Q372-308 390.333-325.667L480-413.334Z"/></svg>