<svg xmlns="http://www.w3.org/2000/svg" height="40" viewBox="0 -960 960 960" width="40" fill="rgb(0, 170, 255)"><path d="M434-232.668 336.333-136q-13 13.666-33 13.166T271-136.334q-14-12.333-14-32.333 0-19.999 14-33.999l163-162.001V-434h-69L204.666-273.667q-13.333 14-33.333 13.833-20-.166-32.666-13.499Q125-285.667 125-305.5q0-19.833 14-32.833L232.001-434H112.667Q93-434 80-447.334q-13-13.333-13-33.333 0-18 13.334-31.999 13.333-14 33.333-14h118.334L136-623.334Q122.334-635.667 122.5-656q.167-20.333 13.834-33.333 12.333-12.334 32.333-12.334 19.999 0 33.999 12.334L365-526.666h69v-70.001L273.667-755q-14-13.333-13.5-33.333T274-821.666q12.333-13 32.167-13 19.833 0 32.833 14l95 92.667V-847q0-19 13.334-32.5 13.333-13.5 33.333-13.5 18 0 31.999 13.5 14 13.5 14 32.5v119.001l96.668-96.334q12.333-13 32.666-12.5T689.333-824Q701-810 701-790.5T688.667-757L526.666-596.667v70.001h69.667l159.334-160.001Q769-700 789-699.5t33.333 13.167q13 13 13 32.833t-14 32.166l-92.667 94.668H847q19 0 32.5 14 13.5 13.999 13.5 31.999 0 20-13.5 33.333Q866-434 847-434H728.666l94 97.667q14 13 13.5 32.667-.5 19.666-12.833 31.999-14.666 14.667-33.5 14.333-18.833-.333-32.166-13.333L596.333-434h-69.667v69.333l162.667 163.334q12.334 13.333 12.334 33 0 19.666-13.334 32.333-13 13.666-32.499 14-19.5.333-31.833-13.334l-97.335-97.334v120.001q0 19.667-14 32.667-13.999 13-31.999 13-20 0-33.333-13.334Q434-93.666 434-113.666v-119.001Z"/></svg>