<svg xmlns="http://www.w3.org/2000/svg" height="40" viewBox="0 -960 960 960" width="40" fill="rgb(214, 30, 5)"><path d="M738.667-80Q759-134.667 769-191.5q10-56.834 7.667-115.168-45 79.667-123.167 126.668-78.166 47-171.5 47-90.305 0-163.537-41.934-73.231-41.933-124.847-112.333t-79.449-161.752Q86.333-540.37 86.333-638.938q0-61.395 8.5-122.229Q103.334-822 125-880h97q-20 54.667-29.667 111.5-9.667 56.834-9 114.501 45-80.334 124.67-126.667Q387.673-827 482-827q90.361 0 162.637 42.156t123.196 112.48q50.921 70.323 78.377 161.38Q873.667-419.928 873.667-322q0 62.333-8.5 123.167Q856.667-138 835-80h-96.333ZM481.835-314.334q69.832 0 117.832-47.834 47.999-47.835 47.999-117.667t-47.834-117.832q-47.835-47.999-117.667-47.999t-117.831 47.834q-48 47.835-48 117.667t47.834 117.831q47.835 48 117.667 48Zm.032-91.332q-30.867 0-52.534-21.8-21.667-21.799-21.667-52.667 0-30.867 21.8-52.534 21.799-21.667 52.667-21.667 30.867 0 52.534 21.8 21.667 21.799 21.667 52.667 0 30.867-21.8 52.534-21.799 21.667-52.667 21.667Z"/></svg>